HIERARCHY
ROOT Hips
{
	OFFSET -14.64140 90.27770 -84.91600
	CHANNELS 6 Xposition Yposition Zposition Zrotation Xrotation Yrotation
	JOINT Spine
	{
		OFFSET 0.00000 13.20850 -1.60436
		CHANNELS 3 Zrotation Xrotation Yrotation
		JOINT Spine1
		{
			OFFSET 0.00000 8.61716 0.00000
			CHANNELS 3 Zrotation Xrotation Yrotation
			JOINT Spine2
			{
				OFFSET 0.00000 8.61717 0.00000
				CHANNELS 3 Zrotation Xrotation Yrotation
				JOINT Spine3
				{
					OFFSET 0.00000 8.61717 0.00000
					CHANNELS 3 Zrotation Xrotation Yrotation
					JOINT Neck
					{
						OFFSET 0.00000 11.07920 1.10792
						CHANNELS 3 Zrotation Xrotation Yrotation
						JOINT Neck1
						{
							OFFSET 0.00000 7.08032 0.00000
							CHANNELS 3 Zrotation Xrotation Yrotation
							JOINT Head
							{
								OFFSET 0.00000 7.08031 0.00000
								CHANNELS 3 Zrotation Xrotation Yrotation
								End site
								{
									OFFSET 0.00000 0.00000 0.00000
								}
							}
						}
					}
					JOINT RightShoulder
					{
						OFFSET -0.01000 7.91373 5.19711
						CHANNELS 3 Zrotation Xrotation Yrotation
						JOINT RightArm
						{
							OFFSET -18.41580 0.00000 0.00000
							CHANNELS 3 Zrotation Xrotation Yrotation
							JOINT RightForeArm
							{
								OFFSET -29.11090 0.00000 0.00000
								CHANNELS 3 Zrotation Xrotation Yrotation
								JOINT RightHand
								{
									OFFSET -24.65040 0.00000 0.00000
									CHANNELS 3 Zrotation Xrotation Yrotation
									JOINT RightHandThumb1
									{
										OFFSET -5.35114 -0.85590 3.97906
										CHANNELS 3 Zrotation Xrotation Yrotation
										JOINT RightHandThumb2
										{
											OFFSET -4.52789 0.00000 0.00000
											CHANNELS 3 Zrotation Xrotation Yrotation
											JOINT RightHandThumb3
											{
												OFFSET -2.46976 0.00000 0.00000
												CHANNELS 3 Zrotation Xrotation Yrotation
												End site
												{
													OFFSET 0.00000 0.00000 0.00000
												}
											}
										}
									}
									JOINT RightHandIndex1
									{
										OFFSET -14.26970 0.00000 2.88139
										CHANNELS 3 Zrotation Xrotation Yrotation
										JOINT RightHandIndex2
										{
											OFFSET -5.48836 0.00000 0.00000
											CHANNELS 3 Zrotation Xrotation Yrotation
											JOINT RightHandIndex3
											{
												OFFSET -3.01859 0.00000 0.00000
												CHANNELS 3 Zrotation Xrotation Yrotation
												End site
												{
													OFFSET 0.00000 0.00000 0.00000
												}
											}
										}
									}
									JOINT RightHandMiddle1
									{
										OFFSET -14.26970 0.00000 -0.09147
										CHANNELS 3 Zrotation Xrotation Yrotation
										JOINT RightHandMiddle2
										{
											OFFSET -6.17441 0.00000 0.00000
											CHANNELS 3 Zrotation Xrotation Yrotation
											JOINT RightHandMiddle3
											{
												OFFSET -3.56743 0.00000 0.00000
												CHANNELS 3 Zrotation Xrotation Yrotation
												End site
												{
													OFFSET 0.00000 0.00000 0.00000
												}
											}
										}
									}
									JOINT RightHandRing1
									{
										OFFSET -12.69180 0.00000 -3.06433
										CHANNELS 3 Zrotation Xrotation Yrotation
										JOINT RightHandRing2
										{
											OFFSET -5.62556 0.00000 0.00000
											CHANNELS 3 Zrotation Xrotation Yrotation
											JOINT RightHandRing3
											{
												OFFSET -3.56744 0.00000 0.00000
												CHANNELS 3 Zrotation Xrotation Yrotation
												End site
												{
													OFFSET 0.00000 0.00000 0.00000
												}
											}
										}
									}
									JOINT RightHandPinky1
									{
										OFFSET -11.11390 0.00000 -6.03719
										CHANNELS 3 Zrotation Xrotation Yrotation
										JOINT RightHandPinky2
										{
											OFFSET -4.52789 0.00000 0.00000
											CHANNELS 3 Zrotation Xrotation Yrotation
											JOINT RightHandPinky3
											{
												OFFSET -2.46976 0.00000 0.00000
												CHANNELS 3 Zrotation Xrotation Yrotation
												End site
												{
													OFFSET 0.00000 0.00000 0.00000
												}
											}
										}
									}
								}
							}
						}
					}
					JOINT LeftShoulder
					{
						OFFSET 0.01000 7.91373 5.19711
						CHANNELS 3 Zrotation Xrotation Yrotation
						JOINT LeftArm
						{
							OFFSET 18.41580 0.00000 0.00000
							CHANNELS 3 Zrotation Xrotation Yrotation
							JOINT LeftForeArm
							{
								OFFSET 29.11090 0.00000 0.00000
								CHANNELS 3 Zrotation Xrotation Yrotation
								JOINT LeftHand
								{
									OFFSET 24.65040 0.00000 0.00000
									CHANNELS 3 Zrotation Xrotation Yrotation
									JOINT LeftHandThumb1
									{
										OFFSET 5.35114 -0.85590 3.97906
										CHANNELS 3 Zrotation Xrotation Yrotation
										JOINT LeftHandThumb2
										{
											OFFSET 4.52789 0.00000 0.00000
											CHANNELS 3 Zrotation Xrotation Yrotation
											JOINT LeftHandThumb3
											{
												OFFSET 2.46977 0.00000 0.00000
												CHANNELS 3 Zrotation Xrotation Yrotation
												End site
												{
													OFFSET 0.00000 0.00000 0.00000
												}
											}
										}
									}
									JOINT LeftHandIndex1
									{
										OFFSET 14.26970 0.00000 2.88139
										CHANNELS 3 Zrotation Xrotation Yrotation
										JOINT LeftHandIndex2
										{
											OFFSET 5.48836 0.00000 0.00000
											CHANNELS 3 Zrotation Xrotation Yrotation
											JOINT LeftHandIndex3
											{
												OFFSET 3.01859 0.00000 0.00000
												CHANNELS 3 Zrotation Xrotation Yrotation
												End site
												{
													OFFSET 0.00000 0.00000 0.00000
												}
											}
										}
									}
									JOINT LeftHandMiddle1
									{
										OFFSET 14.26970 0.00000 -0.09147
										CHANNELS 3 Zrotation Xrotation Yrotation
										JOINT LeftHandMiddle2
										{
											OFFSET 6.17440 0.00000 0.00000
											CHANNELS 3 Zrotation Xrotation Yrotation
											JOINT LeftHandMiddle3
											{
												OFFSET 3.56744 0.00000 0.00000
												CHANNELS 3 Zrotation Xrotation Yrotation
												End site
												{
													OFFSET 0.00000 0.00000 0.00000
												}
											}
										}
									}
									JOINT LeftHandRing1
									{
										OFFSET 12.69180 0.00000 -3.06433
										CHANNELS 3 Zrotation Xrotation Yrotation
										JOINT LeftHandRing2
										{
											OFFSET 5.62556 0.00000 0.00000
											CHANNELS 3 Zrotation Xrotation Yrotation
											JOINT LeftHandRing3
											{
												OFFSET 3.56744 0.00000 0.00000
												CHANNELS 3 Zrotation Xrotation Yrotation
												End site
												{
													OFFSET 0.00000 0.00000 0.00000
												}
											}
										}
									}
									JOINT LeftHandPinky1
									{
										OFFSET 11.11390 0.00000 -6.03719
										CHANNELS 3 Zrotation Xrotation Yrotation
										JOINT LeftHandPinky2
										{
											OFFSET 4.52789 0.00000 0.00000
											CHANNELS 3 Zrotation Xrotation Yrotation
											JOINT LeftHandPinky3
											{
												OFFSET 2.46976 0.00000 0.00000
												CHANNELS 3 Zrotation Xrotation Yrotation
												End site
												{
													OFFSET 0.00000 0.00000 0.00000
												}
											}
										}
									}
								}
							}
						}
					}
					JOINT pCube4
					{
						OFFSET 0.00000 10.91090 1.10792
						CHANNELS 3 Zrotation Xrotation Yrotation
						End site
						{
							OFFSET 0.00000 0.00000 0.00000
						}
					}
				}
			}
		}
	}
	JOINT RightUpLeg
	{
		OFFSET -9.98441 0.00000 0.00000
		CHANNELS 3 Zrotation Xrotation Yrotation
		JOINT RightLeg
		{
			OFFSET 0.00000 -42.11790 0.00000
			CHANNELS 3 Zrotation Xrotation Yrotation
			JOINT RightFoot
			{
				OFFSET 0.00000 -45.00020 -0.00001
				CHANNELS 3 Zrotation Xrotation Yrotation
				JOINT RightForeFoot
				{
					OFFSET 0.00000 -3.74820 0.00000
					CHANNELS 3 Zrotation Xrotation Yrotation
					JOINT RightToeBase
					{
						OFFSET 0.00000 0.06325 14.43120
						CHANNELS 3 Zrotation Xrotation Yrotation
						End site
						{
							OFFSET 0.00000 0.00000 0.00000
						}
					}
				}
			}
		}
	}
	JOINT LeftUpLeg
	{
		OFFSET 9.98441 0.00000 0.00000
		CHANNELS 3 Zrotation Xrotation Yrotation
		JOINT LeftLeg
		{
			OFFSET 0.00000 -42.11800 0.00000
			CHANNELS 3 Zrotation Xrotation Yrotation
			JOINT LeftFoot
			{
				OFFSET 0.00000 -45.00070 0.00000
				CHANNELS 3 Zrotation Xrotation Yrotation
				JOINT LeftForeFoot
				{
					OFFSET 0.00000 -3.74824 0.00000
					CHANNELS 3 Zrotation Xrotation Yrotation
					JOINT LeftToeBase
					{
						OFFSET 0.00000 0.06325 14.43110
						CHANNELS 3 Zrotation Xrotation Yrotation
						End site
						{
							OFFSET 0.00000 0.00000 0.00000
						}
					}
				}
			}
		}
	}
}
MOTION
Frames: 4
Frame Time: 0.050000
0.0373400543263699 -0.027837083372203614 -0.0033233575031761556 0.02925801823205837 0.002349816062954149 0.04048495877004973 1.2175095912706564 3.5873463072417326 -1.4823651577770267 -0.6665022623479392 3.7135640001079806 0.36157551906738067 -0.7623925373588791 -1.2050746003119068 1.4893448532954854 -0.5028536746020591 -0.9055912085163621 -0.29533349034001066 0.42347565308393037 11.829900688714126 -2.2151070771193107 0.21609130840892898 -1.6317043313776105 -6.94610726248662 1.0762172156953569 -17.94491280606744 -0.6129565368527184 -6.731349968075203 2.624627123647895 -16.146075241224462 75.60042738335565 -23.13600640663291 19.198777568923642 25.33443841826441 -1.9735003676266305 86.78139982464417 11.072021917173675 -0.276982784065576 -1.4935584941618647 4.52809779598869 -0.14592814280400238 -1.5538581366504203 -0.005937353255470811 -0.04965760552918362 -56.22999330609535 -0.04726096576045238 0.008302503565541864 -56.205848812888156 -38.76874059831895 -0.002333184455999458 -0.0323434731815844 -0.00020092455315272662 0.03232423358453868 0.005544750052914564 0.03043224902326014 -0.046264410419519356 0.012963587694579821 -36.689240868573066 0.033913154382802006 0.010418836308344923 -0.005277218543745542 0.04485184384972514 -0.04978594040416935 -0.041497160549173094 0.04013655896994278 -0.025350342938872047 -19.77936548942335 0.017192689336130672 0.003890538784972425 -0.032200762340429186 0.03498158436491288 -0.009061944055743731 -0.004096842086410254 0.015506003979975862 -0.037862427845005694 24.086667787839144 0.04288030625074552 -0.001942495725879587 28.861927595945524 -0.012703140988585243 -0.040385934417349445 28.913060468939968 -0.02627593759577113 -0.0007328878949776445 5.342525925667705 1.5697844028442458 14.534589828690413 -72.90935207652596 -1.5952462915177223 -10.071541727026059 11.475335435508958 -10.072213765748891 -73.12776689663427 -9.428752691569724 11.546628764476852 -11.022808294328597 -0.44633832767687326 0.07948010877423045 -8.154730207835371 0.01688409167246812 0.04761289074007752 44.60362534494019 -0.04746356622937692 -0.0007426989213918674 44.557282524554836 12.485933539272956 -0.0009001355564140558 -0.047867182636848825 0.04398414712522527 0.03798947188055661 0.0015036866150032434 -0.02847209223009067 0.04470502339592903 -0.005709028916849393 11.153997042575476 0.01691781772724582 0.015237195680555744 -0.015608079369754828 -0.04512952262050659 -0.03086227557725562 0.009205930048708039 0.0033065343353859073 -0.019306510489701303 4.741519692181082 0.014544428558736777 0.023064683922887092 0.03125701847640988 0.03098367294289105 -0.040883354827496075 -0.031238856802387718 -0.035849597059851426 -0.006817610078807144 -5.555813590533745 -0.019387239860400196 -0.03746116794280139 -6.710890413201589 0.038742791025165764 0.010682454315600517 -6.733442545740768 -0.012511632008164792 -0.01753264806352691 -0.0027900668314996746 -0.023455631715780214 0.01481360948373468 8.078513652919103 3.4609701584065293 -19.227909238770952 -0.013282598580405178 10.38568245510482 0.029332115776943505 -5.615727555361185 -15.645568827085963 3.2048051939839204 0.012680665526754793 0.0038697266548109303 -0.04064283324404217 0.0161216026930092 4.671925705175163 0.009904649685769255 12.442792460069015 -8.276928796768123 6.883631177884504 -0.028653974526964908 46.36543445973456 0.04980306652171425 -4.298042865703132 -14.76333004457793 -3.8144880266869645 -0.008342801800020911 -0.013072712017621094 -0.03248334568287148 -0.014092016281108559 -10.742604733033918 -0.0330433165132774 
0.015882796813176392 0.04070208178372351 -0.04547441056416022 0.048178214968833226 0.0015103563427083986 0.011801180296215526 1.6164749018699998 3.6042312689939844 -1.521716062035218 -0.6931505855511401 3.7304937886230056 0.37817180618401675 -0.7960346487855183 -1.1049410981345396 1.72778785282843 -0.49183432053196147 -0.7945732796945137 -0.3039002502954325 0.46919322737086694 11.996657907140074 -2.2829964913825664 0.18306513983792588 -1.5176928282351143 -7.218563169355854 1.0666573271692281 -17.909853423847057 -0.6415940886946256 -7.723770410333387 2.8668746629837 -16.326890896642237 75.23423822467795 -23.02116353977 21.803973713646716 23.07822011249874 -3.3650153027038763 89.31615048538619 9.268440265230321 -0.24859087934107388 -0.9323577288522914 4.542606240826812 -0.11084604191566777 -1.6400695485133998 0.00912264819372848 -0.01852018525750204 -56.18542914674276 0.01748996320256463 -0.041040803749293975 -56.213176941204594 -38.81439356850213 0.041173518120648706 -0.012112493302936175 0.0070216919479365834 0.035498516163889604 0.008925750107447585 0.002929163359088725 0.0349981050776605 -0.03377743900771937 -36.6726643377584 0.00353138550121951 -0.006160035107222584 0.014832499126932581 0.010464590623170095 -0.01239090419689748 -0.04775400723143169 0.028425457759197522 0.045030414737627214 -19.759221856744514 0.00762126357949033 0.029881231696985772 0.041022761216384776 0.020035429223404278 -0.0268317252201282 -0.04136848961289207 -0.04994480681767568 0.00043657941550305984 24.07594170059505 -0.049440850747244844 -0.00802258006823016 28.87406404951919 -0.016291520166616204 -0.019576907967466264 28.84185243646828 0.0072722277817325875 -0.020321265349968518 5.734899371563449 1.6397778216930612 14.626918229867305 -71.9169535056552 0.7504308065683234 -9.53534531563729 14.530310864091867 -13.826545033351675 -78.17741532131603 -7.472206375645297 9.196136020142196 -10.563845932874374 -0.4981009736499352 0.08992040487215708 -8.128211651288288 -0.013419147774373169 0.003310153142354105 44.55143048919636 0.025834968532750354 -0.04915723360165643 44.56598867069612 12.472588841835279 0.009251535683452747 0.004966698129691373 0.03069025320020529 0.02828193087141334 -0.021740258474151862 -0.005118527920773492 -0.00430625502962161 -0.026625058150399367 11.113677828251529 -0.009468819549284389 0.045197988696784305 0.01635327202515645 -0.022066394123673283 -0.04539414860280984 -0.019242694143496178 0.026366141153694074 0.023765133777876174 4.772705113516428 -0.0012425735656398003 0.011739691372702244 -0.049054845272348796 -0.025384754493231257 0.04675476156584295 0.03739559831014954 0.011074262325334474 0.0031137783508944374 -5.616292859756416 -0.03543740566692491 0.019333709739091282 -6.719037862223617 -0.002099538598813118 -0.03604663818980919 -6.705238903338143 0.043610159954321805 0.03662437079121326 0.0026230193018314286 -0.04600280913523662 -0.01917058539392873 8.026584243916766 3.487661409572897 -19.23225073239328 0.003133655837179068 10.394297815633811 0.007426178698151469 -5.653349562134032 -15.673725010414257 3.1726412231525836 -0.009363708875807729 -0.04847078535794715 -0.0012221450816934745 -0.0030445179307045404 4.707993762800128 0.04343027016919932 12.46170482645055 -8.259174265868058 6.887186778469127 -0.010693423385663389 46.36464941687941 -0.03283185203624976 -4.324181767407891 -14.763647945627968 -3.8435633159814957 0.0361359745366293 -0.009825029787399487 0.0057475374704519635 0.04755424613548704 -10.703140816053267 -0.0043240788951824545 
0.02369181197653981 0.005811829255268905 0.0015725459539885373 -0.008182860277466598 0.038320001860806696 -0.03134100792330221 1.9358551383482296 3.692727739288559 -1.4673878645353688 -0.7332207046212639 3.702626505023122 0.40570854984818006 -0.8081198910218536 -1.1651965105556559 2.0175490534911114 -0.515582592781854 -0.8446797359491359 -0.296221126056665 0.5246408100759796 12.259880731657582 -2.231384450967332 0.19536174233997738 -1.4257611738619203 -7.342271901119915 1.0868711366186872 -17.794292351396724 -0.5933948706946953 -8.76012018441421 3.066224288694175 -16.503687244248635 74.95838779940522 -24.943252210753293 25.50066858813074 21.5624417439013 -4.709137904622702 91.18275034813573 7.822584593515122 -0.21653270524058457 -0.40427791332008467 4.559059691400924 -0.12227136675990037 -1.5699924795229692 -0.00471514417078926 -0.03364591455412513 -56.221917334941345 0.009816900444832376 0.035516051765504535 -56.27706461004971 -38.80597703639919 0.04716248679698207 0.018623316894497352 -0.0466220791165969 0.02135903125269773 -0.00739716395273111 -0.005604938072253731 -0.008577150552945568 -0.0007219672704605497 -36.730187142180085 -0.02893390893466129 -0.03669242232919544 0.03128741229581571 0.015238992690665754 -0.02414396268009567 -0.012530995295893178 -0.010306011952957581 0.015232717611963544 -19.798687403509778 -0.013600701233628113 -0.03847755472299204 0.01215629386335277 -0.013686917238946668 -0.005652480117130129 -0.02171589415889239 0.04137067410656279 -0.03655174382977173 24.0654749809831 0.023021807062784172 -0.010490787247913719 28.883485246373457 -0.0245723190044309 0.02591472405361051 28.81564187992632 0.02258440431149312 -0.007638452260349836 6.171210179469588 1.67425342270142 14.857516724360927 -71.45020168504702 0.19891979991554104 -9.414899665556193 15.372948070580609 -15.002753681244569 -81.03982558247789 -6.255179529249581 8.09296604350712 -10.60064960501004 -0.46242906658446126 0.08827000868066492 -8.15129310823507 -0.04813276511137028 -0.0072791099853238405 44.55277978095327 0.014274439010844997 0.03495582218283239 44.540871398993275 12.443694697249791 -0.010264136297418727 -0.003706654244656374 0.016498507400716445 0.026669468392611702 0.04355496694745554 0.04028182478191194 0.024859331534566393 0.047893479144902565 11.146912886474837 -0.018685061119663015 -0.03413006256728593 -0.01815292470594689 -0.030999258323242202 -0.0001041406857069016 0.046375541409897136 -0.005331443073254774 0.0011353676042273097 4.795221984220129 -0.020242148053106635 0.04617916101037342 -0.009393160637474389 -0.011510767196226415 0.024168782523476304 0.019216915642597112 0.045148582834290296 0.03535107356294291 -5.608799514119183 0.026375217607926597 0.0120025927452645 -6.754026608192975 -0.0019462349411144364 -0.03281725384918122 -6.760183681715946 -0.016837202358991134 0.02626477891020925 -0.031112021506307805 -0.010778077734279712 0.032314866115354925 8.088219949655109 3.4955582241778154 -19.23783110195576 0.02212215516015423 10.368950966206306 0.01963068925183606 -5.578895018835872 -15.637108846088207 3.1970774570359923 -0.003038816549113041 0.02250124160657214 -0.029603905216106723 -0.045827253554877344 4.744499607325941 0.01848550714221541 12.451524723186902 -8.25839100898635 6.8425568157453975 -0.016738561895619914 46.42556043099928 -0.032109935144907266 -4.2766358101599184 -14.759140691053274 -3.859072126937743 0.0067101748834427506 -0.03402128410520681 -0.029289893621562226 0.026613349699469397 -10.784599262265028 0.02821492728690895 
-0.029936176434619745 0.038869145544721484 -0.022666915048718053 0.019439851592434717 -0.04339285462770335 -0.03151591770984939 2.080737933282903 3.7397258740737973 -1.5277768965535938 -0.7335114963099706 3.768932882367146 0.42285715638716964 -0.8223584643342391 -1.2199726252890204 2.31268747272816 -0.5535490935833015 -0.8526041637252378 -0.21604041044712308 0.5905188841388122 12.523083729454433 -2.1805667917253837 0.09448576076680044 -1.367012404442564 -7.30158273489331 1.1073190850977686 -17.71345304171933 -0.6778407005910672 -9.709445775701402 3.3613826859200495 -16.64911592046014 74.66680726526366 -27.76035815283724 28.99619594535737 20.583341759703323 -5.672564705080013 92.39058198194606 6.7412111273912565 -0.22305084641247902 0.11997525454005091 4.527954170690152 -0.13942381364149292 -1.5439344411346247 0.016661976069361442 0.044810661068489334 -56.20515369988533 -0.01629828199098371 -0.003130048650971419 -56.280100229403736 -38.79487398722371 0.01898681144722092 -0.04798589427873353 -0.0419467475881497 -0.01049258591943863 -0.011971631321060897 0.03800015854617047 -0.006170246680696702 -0.04886253887951868 -36.68447672675794 0.03683885841296755 -0.03839990977133549 -0.02198108809640991 -0.009569983729341484 -0.039055335794848385 -0.015402350287169152 0.03765810050449363 -0.04999468134332989 -19.802675287377372 -8.40403749799458e-05 0.004712535860839986 0.006724295572120337 0.0015116450358511676 -0.02380744906657131 0.049958231455397926 -0.04016193324830275 0.018175885748297697 24.009315888549203 -0.0046208303253331365 0.009566191321492626 28.897073102378126 0.02473375450027996 0.048444937675914304 28.902927021986297 -0.001345855756247168 -0.01947970438204602 6.709800258050291 1.7797256896700646 15.124922186941197 -71.24768687133876 -2.0560107598939106 -9.809108514404443 14.595584787571433 -14.2139713025888 -82.80923670421227 -5.478515563030738 7.891099889945722 -11.03914234820425 -0.46672969976789636 0.04288281843104321 -8.131840673628352 -0.036360779033221505 0.035692138393598395 44.615193532510084 0.014892367449835953 0.017988434234001798 44.584990994332586 12.437060516498187 -0.02169534417551657 0.030623690722000146 -0.007411896607488475 -0.02430527298544283 -0.04145205921919657 0.01949511669942417 0.013409946747211986 0.0243215573170311 11.088948603830817 0.04929287037309387 0.00682173586420451 0.013422649041926263 0.023726855621053217 -0.015926581171581987 -0.0022188153559232716 -0.014081888690110029 0.017018204039729267 4.777494627979499 -0.009673378201031113 -0.020008131635310376 0.008164310444083151 0.0020819100054999405 -0.04348359789270983 -0.01998539577656462 0.014136292182396988 0.020363045294329807 -5.6127042598679555 -0.031580963231611504 -0.03288375249146985 -6.699444445646959 0.0009118010850945937 -0.027701002208430945 -6.738102164231603 0.021647208408623043 0.027106464724454802 -0.016198696023091607 0.031849846512115705 -0.00515553592955046 8.089019713261118 3.4928612500057494 -19.19687361224224 -0.027988528970488376 10.426334887928462 -0.028151397405973815 -5.586367734960519 -15.64121011320801 3.2085933134576794 0.025413121091366175 -0.004028761504616572 -0.0003327498742812161 -0.009447969848932437 4.725882679485023 -0.03053780735364667 12.439658010111454 -8.233610004017319 6.833484675199554 0.047564217771896226 46.358792545950436 -0.025312276520733815 -4.321818584048416 -14.760472868687474 -3.7933993888163653 -0.01226622622555711 0.03585752516947996 -0.04431699057095532 0.007925325372477782 -10.745755672000628 -0.04030973441708993 
